 <!DOCTYPE svg PUBLIC "-//W3C//DTD SVG 1.1//EN" "http://www.w3.org/Graphics/SVG/1.1/DTD/svg11.dtd">

<svg id="b4f0651f-6a80-424a-83a5-9b33f50e25f8" data-name="Layer 1" xmlns="http://www.w3.org/2000/svg" width="865.76" height="682.89" viewBox="0 100 865.76 682.89">

<defs>

<style xmlns="http://www.w3.org/1999/xhtml">*, ::after, ::before { box-sizing: border-box; }
img, svg { vertical-align: middle; }
</style>

<style xmlns="http://www.w3.org/1999/xhtml">*, body, html { -webkit-font-smoothing: antialiased; }
img, svg { max-width: 100%; }
</style>

</defs>

<rect x="7.74" y="581.47" width="850.29" height="0.43" fill="#ececec"/>

<rect x="716.5" y="608.84" width="56.33" height="0.43" fill="#ececec"/>

<rect x="556.22" y="613.46" width="14.78" height="0.43" fill="#ececec"/>

<rect x="682.16" y="593.05" width="32.64" height="0.43" fill="#ececec"/>

<rect x="96.95" y="595.91" width="73.45" height="0.43" fill="#ececec"/>

<rect x="185.54" y="595.91" width="10.77" height="0.43" fill="#ececec"/>

<rect x="231.31" y="603.09" width="159.3" height="0.43" fill="#ececec"/>

<path d="M410.8,505.63H82.42a9.72,9.72,0,0,1-9.71-9.71V34.33a9.71,9.71,0,0,1,9.71-9.71H410.8a9.71,9.71,0,0,1,9.7,9.71V495.92A9.72,9.72,0,0,1,410.8,505.63ZM82.42,25.05a9.29,9.29,0,0,0-9.28,9.28V495.92a9.29,9.29,0,0,0,9.28,9.28H410.8a9.29,9.29,0,0,0,9.28-9.28V34.33a9.29,9.29,0,0,0-9.28-9.28Z" fill="#ececec"/>

<path d="M778.63,505.63H450.25a9.73,9.73,0,0,1-9.71-9.71V34.33a9.72,9.72,0,0,1,9.71-9.71H778.63a9.72,9.72,0,0,1,9.71,9.71V495.92A9.73,9.73,0,0,1,778.63,505.63ZM450.25,25.05A9.29,9.29,0,0,0,441,34.33V495.92a9.29,9.29,0,0,0,9.28,9.28H778.63a9.29,9.29,0,0,0,9.28-9.28V34.33a9.29,9.29,0,0,0-9.28-9.28Z" fill="#ececec"/>

<rect x="101.22" y="458.27" width="46.24" height="123.19" transform="translate(248.68 1039.74) rotate(180)" fill="#e7e7e7"/>

<polygon points="110.01 581.47 101.22 581.47 101.22 548.91 119.21 548.91 110.01 581.47" fill="#f0f0f0"/>

<rect x="365.03" y="458.27" width="46.24" height="123.19" transform="translate(776.3 1039.74) rotate(180)" fill="#e7e7e7"/>

<rect x="101.22" y="458.27" width="271.47" height="114.31" transform="translate(473.92 1030.86) rotate(180)" fill="#f0f0f0"/>

<polygon points="363.91 581.47 372.7 581.47 372.7 548.91 354.71 548.91 363.91 581.47" fill="#f0f0f0"/>

<path d="M364.52,558.82H282.35v-88h82.17Zm-80.47-1.7h78.77V472.57H284.05Z" fill="#e7e7e7"/>

<path d="M278.05,558.82H195.87v-88h82.18Zm-80.48-1.7h78.78V472.57H197.57Z" fill="#e7e7e7"/>

<path d="M191.57,558.82H109.4v-88h82.17Zm-80.47-1.7h78.77V472.57H111.1Z" fill="#e7e7e7"/>

<rect x="469.38" y="93.15" width="272.44" height="231.97" transform="translate(1211.21 418.28) rotate(180)" fill="#e7e7e7"/>

<rect x="463.25" y="93.15" width="275.91" height="231.97" transform="translate(1202.41 418.28) rotate(180)" fill="#f5f5f5"/>

<rect x="496.35" y="82.19" width="209.71" height="253.9" transform="translate(810.34 -392.07) rotate(90)" fill="#fafafa"/>

<polygon points="697 313.99 597.07 104.28 563.13 104.28 663.06 313.99 697 313.99" fill="#fff"/>

<polygon points="653.44 313.99 553.51 104.28 530.14 104.28 630.07 313.99 653.44 313.99" fill="#fff"/>

<rect x="457.11" y="202.57" width="209.71" height="13.13" transform="translate(771.11 -352.83) rotate(90)" fill="#e7e7e7"/>

<rect x="544.39" y="202.57" width="209.71" height="13.13" transform="translate(858.38 -440.1) rotate(90)" fill="#e7e7e7"/>

<rect x="445.34" y="200.23" width="225.05" height="16.6" transform="translate(766.4 -349.34) rotate(90)" fill="#f5f5f5"/>

<rect x="532.62" y="200.23" width="225.05" height="16.6" transform="translate(853.67 -436.61) rotate(90)" fill="#f5f5f5"/>

<rect x="369.99" y="208.55" width="209.71" height="1.17" transform="translate(683.98 -265.7) rotate(90)" fill="#e7e7e7"/>

<path d="M458.63,78.83H753.79a1.43,1.43,0,0,1,1.42,1.42h0a1.43,1.43,0,0,1-1.42,1.42H458.63a1.43,1.43,0,0,1-1.42-1.42h0A1.43,1.43,0,0,1,458.63,78.83Z" fill="#e7e7e7"/>

<path d="M741.83,88.2h0a1.92,1.92,0,0,0,1.91-1.91V82.17a1.92,1.92,0,0,0-1.91-1.92h0a1.93,1.93,0,0,0-1.92,1.92v4.12A1.92,1.92,0,0,0,741.83,88.2Z" fill="#e7e7e7"/>

<path d="M480,88.2h0A1.92,1.92,0,0,0,482,86.29V82.17A1.92,1.92,0,0,0,480,80.25h0a1.93,1.93,0,0,0-1.92,1.92v4.12A1.92,1.92,0,0,0,480,88.2Z" fill="#e7e7e7"/>

<rect x="459.08" y="80.25" width="275.71" height="115.13" transform="translate(1193.88 275.64) rotate(180)" fill="#e1e1e1" opacity="0.6"/>

<rect x="154.34" y="376.81" width="53.41" height="81.47" rx="4.37" fill="#fafafa"/>

<rect x="154.34" y="370.77" width="53.41" height="7" rx="1.47" fill="#e7e7e7"/>

<rect x="313.34" y="399.15" width="38.76" height="59.13" rx="3.17" fill="#f0f0f0"/>

<rect x="313.34" y="394.76" width="38.76" height="5.08" rx="1.06" fill="#e7e7e7"/>

<rect x="194.74" y="410.77" width="73.39" height="47.5" rx="6" fill="#f0f0f0"/>

<rect x="194.74" y="402.47" width="73.39" height="9.62" rx="2.01" fill="#f5f5f5"/>

<rect x="488.04" y="440.93" width="8.57" height="140.54" transform="translate(984.65 1022.39) rotate(180)" fill="#e7e7e7"/>

<rect x="689.1" y="413.58" width="46.41" height="27.35" fill="#e7e7e7"/>

<rect x="458.37" y="413.58" width="230.74" height="27.35" transform="translate(1147.47 854.5) rotate(180)" fill="#f5f5f5"/>

<rect x="689.1" y="486.61" width="46.41" height="27.35" fill="#e7e7e7"/>

<rect x="458.37" y="486.61" width="230.74" height="27.35" transform="translate(1147.47 1000.57) rotate(180)" fill="#f5f5f5"/>

<rect x="718.78" y="440.93" width="8.57" height="140.54" transform="translate(1446.12 1022.39) rotate(180)" fill="#e7e7e7"/>

<rect x="680.53" y="440.93" width="8.57" height="140.54" transform="translate(1369.64 1022.39) rotate(180)" fill="#f5f5f5"/>

<rect x="458.37" y="440.93" width="8.57" height="140.54" transform="translate(925.3 1022.39) rotate(180)" fill="#f5f5f5"/>

<rect x="126.23" y="104.8" width="109.08" height="122.33" transform="translate(361.54 331.93) rotate(180)" fill="#f0f0f0"/>

<rect x="118.54" y="104.8" width="115.07" height="122.33" transform="translate(352.15 331.93) rotate(180)" fill="#f5f5f5"/>

<rect x="124.55" y="118.07" width="103.05" height="95.79" transform="translate(10.11 342.04) rotate(-90)" fill="#fff"/>

<path d="M160.19,136.26a19.22,19.22,0,0,0-7.52,37l71.31,30V161.46l-56.39-23.72A19.2,19.2,0,0,0,160.19,136.26Z" fill="#f0f0f0"/>

<rect x="271.09" y="165.96" width="109.08" height="122.33" transform="translate(651.25 454.26) rotate(180)" fill="#f0f0f0"/>

<rect x="263.39" y="165.96" width="115.07" height="122.33" transform="translate(641.86 454.26) rotate(180)" fill="#f5f5f5"/>

<rect x="269.4" y="179.23" width="103.05" height="95.79" transform="translate(93.8 548.06) rotate(-90)" fill="#fff"/>

<path d="M331.71,215.45,273,190.76V233.5l43.41,18.25a19.69,19.69,0,1,0,15.26-36.3Z" fill="#f0f0f0"/>

<ellipse id="a33fb12d-d5b3-4ea5-bcc1-31f301db81bf" data-name="&lt;Path&gt;" cx="432.88" cy="639.02" rx="329.72" ry="19.26" fill="#f5f5f5"/>

<path d="M337.77,128.79c1.63-7.16,19.49-14,34.79-3.47a37.34,37.34,0,0,1,14.46,43c-8.22,24.32,34.66,23.42,44.59,64.43,7.84,32.38.57,78.07-43.18,75.59-66.78-3.8-61-69.07-63.95-103.37S285.12,132.25,337.77,128.79Z" fill="#700000" data-secondary="true"/>

<path d="M315.71,220.37c-.29,5-.87,9.51-1.52,14.22s-1.54,9.31-2.55,13.94-2.13,9.25-3.59,13.81a123.38,123.38,0,0,1-5,13.56l-1.5,3.34c-.21.5-.61,1.24-.94,1.87s-.7,1.21-1.06,1.82a52.86,52.86,0,0,1-4.65,6.21,107.22,107.22,0,0,1-10.2,10.24,190.33,190.33,0,0,1-22.38,16.94l-4.54-5.87c3.2-3.1,6.46-6.3,9.61-9.49s6.27-6.44,9.22-9.74a124.59,124.59,0,0,0,8.25-10,45.83,45.83,0,0,0,3.19-5c.19-.39.43-.8.59-1.18s.31-.68.51-1.24l1.14-3a167.35,167.35,0,0,0,6.77-25.22c.87-4.32,1.48-8.71,2.14-13.08s1.13-8.87,1.51-13Z" fill="#f9b499"/>

<path d="M305.5,202.51c-6,1.53-10.26,26.39-10.26,26.39l23.1,15.72s9.51-29.47,4.86-36.12C318.36,201.59,314.32,200.26,305.5,202.51Z" fill="#e60004" data-primary="true"/>

<path d="M260.58,308.33,245,310.81l8.87,9.83s9.17-2.09,10.78-8Z" fill="#f9b499"/>

<polygon points="237.65 312.76 246.53 322.37 253.89 320.64 245.01 310.81 237.65 312.76" fill="#f9b499"/>

<polygon points="338.19 620.93 323.53 620.93 322.55 586.99 337.21 586.99 338.19 620.93" fill="#f9b499"/>

<polygon points="439.55 577.73 425.98 583.27 408.79 553.63 422.36 548.09 439.55 577.73" fill="#f9b499"/>

<path d="M423.43,581.24l14.15-8.41a1.16,1.16,0,0,1,1.52.26l8.27,10.24a2.35,2.35,0,0,1-.69,3.44c-5,2.85-7.54,4-13.76,7.67-3.83,2.28-12.84,10.08-18.13,13.22s-8.67-1.92-6.75-3.7a50.22,50.22,0,0,0,13.74-20.69A3.82,3.82,0,0,1,423.43,581.24Z" fill="#007cff"/>

<path d="M323,619.24H339.5a1.16,1.16,0,0,1,1.17,1l1.87,13a2.35,2.35,0,0,1-2.35,2.61c-5.74-.1-8.51-.43-15.75-.43-4.45,0-13.67.46-19.82.46s-6.48-6.09-3.92-6.64c11.49-2.47,16-5.87,19.88-9.12A3.8,3.8,0,0,1,323,619.24Z" fill="#007cff"/>

<path d="M305.5,202.51s-7,2.46,7,88.46H372c-1-24.23-1-39.17,10.55-88.89a176.11,176.11,0,0,0-25.28-3.33c-10-.48-18.22-.8-27,0C318.67,199.81,305.5,202.51,305.5,202.51Z" fill="#e60004" data-primary="true"/>

<path d="M333.41,222.54s7.74,4.77,9.77,11.85c8.39-6.15,19.81-23.28,20.26-33.52a2.24,2.24,0,0,0-2.25-2.28,30,30,0,0,0-3.88.16Z" fill="#fafafa"/>

<path d="M333.41,222.54s-7.73,4.77-9.76,11.85c-9-6.61-4-28.44,1.15-35.7a25.5,25.5,0,0,1,5.48.06Z" fill="#fafafa"/>

<path d="M354.63,168.31c-1.7,8.7-3.4,24.64,2.68,30.44,0,0-8,15.42-23.9,23.79-12.05-9.64-3.13-23.79-3.13-23.79,9.7-2.31,9.45-9.51,7.76-16.27Z" fill="#f9b499"/>

<path d="M312.51,291S301,403.88,301.91,448.58c1,46.49,18,152.53,18,152.53h19.82s-3.13-103.32-1.38-149C340.29,402.35,356.1,291,356.1,291Z" fill="#700000" data-secondary="true"/>

<path d="M312.51,291S301,403.88,301.91,448.58c1,46.49,18,152.53,18,152.53h19.82s-3.13-103.32-1.38-149C340.29,402.35,356.1,291,356.1,291Z" fill="#700000" opacity="0.4" data-secondary="true"/>

<polygon points="341.48 601.82 318.23 601.82 316.52 594.4 342.56 593.49 341.48 601.82" fill="#1a2e35"/>

<path d="M328.23,291S341.72,408.35,351.9,446c12.09,44.74,61.2,121.08,61.2,121.08l18.51-7.56s-31.72-86.92-41-110.49C370.92,398.77,387.81,323.8,372,291Z" fill="#700000" data-secondary="true"/>

<path d="M328.23,291S341.72,408.35,351.9,446c12.09,44.74,61.2,121.08,61.2,121.08l18.51-7.56s-31.72-86.92-41-110.49C370.92,398.77,387.81,323.8,372,291Z" fill="#700000" opacity="0.4" data-secondary="true"/>

<path d="M163.53,141.64a100,100,0,1,0,141.16,8.6A100,100,0,0,0,163.53,141.64ZM285.59,279.55a84.18,84.18,0,1,1,7.25-118.82A84.17,84.17,0,0,1,285.59,279.55Z" fill="#700000" data-secondary="true"/>

<path d="M163.53,141.64a100,100,0,1,0,141.16,8.6A100,100,0,0,0,163.53,141.64ZM285.59,279.55a84.18,84.18,0,1,1,7.25-118.82A84.17,84.17,0,0,1,285.59,279.55Z" opacity="0.2"/>

<path d="M225.1,293.51a77.14,77.14,0,1,1,81.7-72.3A77.15,77.15,0,0,1,225.1,293.51Z" fill="#e6e7e8"/>

<g opacity="0.5">

<path d="M234.49,139.52c-.48,0-1-.06-1.44-.07l-80.13,70.91c0,.49-.07,1-.1,1.46a76.84,76.84,0,0,0,12.67,47.28l114.4-101.25A76.82,76.82,0,0,0,234.49,139.52Z" fill="#fafafa"/>

<path d="M287.3,165.1,171.78,267.33a76.8,76.8,0,0,0,13,11.81l112.66-99.71A76.83,76.83,0,0,0,287.3,165.1Z" fill="#fafafa"/>

</g>

<path d="M303.64,290c9.92,8.73,19.41,17.84,28.77,27.07s18.52,18.63,27.57,28.13,17.93,19.15,26.73,28.87c8.27,10.2,19.53,17.74,21.21,33.76a8.1,8.1,0,0,1-9.87,8.74c-15.7-3.62-21.82-15.71-30.94-25.15q-12.86-14.9-25.4-30.05t-24.58-30.79c-8-10.41-15.91-20.93-23.37-31.84a6.65,6.65,0,0,1,9.88-8.74Z" fill="#700000" data-secondary="true"/>

<path d="M303.64,290c9.92,8.73,19.41,17.84,28.77,27.07s18.52,18.63,27.57,28.13,17.93,19.15,26.73,28.87c8.27,10.2,19.53,17.74,21.21,33.76a8.1,8.1,0,0,1-9.87,8.74c-15.7-3.62-21.82-15.71-30.94-25.15q-12.86-14.9-25.4-30.05t-24.58-30.79c-8-10.41-15.91-20.93-23.37-31.84a6.65,6.65,0,0,1,9.88-8.74Z" opacity="0.2"/>

<path d="M370.14,168.29a10.62,10.62,0,0,1-6.78,4.46c-3.67.68-5.16-2.68-3.86-6,1.17-2.95,4.48-6.87,8-6.05S372.05,165.42,370.14,168.29Z" fill="#f9b499"/>

<path d="M336.27,302.85l-14.46-6.46,4.12,14.32s9.18,2.09,13.17-2.51Z" fill="#f9b499"/>

<path d="M389.53,219.74c.67,5,1.19,10.06,1.79,15.09L392.86,250c.53,5,.94,10.09,1.41,15.13l.64,7.58.16,1.89c0,.19.08,1,.09,1.52a17.46,17.46,0,0,1-.07,1.77,16.17,16.17,0,0,1-2,6.14,25.63,25.63,0,0,1-6.82,7.45,51.31,51.31,0,0,1-7.28,4.61,102.18,102.18,0,0,1-14.81,6.21c-5,1.68-10,3.1-15,4.37s-10,2.29-15.23,3.09l-1.65-7.24c4.68-1.53,9.47-3.13,14.11-4.9S355.7,294,360.16,292a106.38,106.38,0,0,0,12.71-6.63,41,41,0,0,0,5.34-3.87,13,13,0,0,0,3.21-3.84,2.34,2.34,0,0,0,.28-1.05c0-.05,0-.09,0-.13s0,.06-.06-.38l-.27-1.88-1.08-7.53c-.68-5-1.42-10-2-15.08l-1.91-15.09c-.56-5-1.19-10.07-1.67-15.11Z" fill="#f9b499"/>

<path d="M382.59,202.08c6,1.81,13.13,22.35,13.13,22.35l-20.87,21.49s-10.71-22.09-8.2-29.8C369.26,208.09,375.79,200,382.59,202.08Z" fill="#e60004" data-primary="true"/>

<polygon points="309.85 299.36 313.95 311.17 325.93 310.71 321.81 296.39 309.85 299.36" fill="#f9b499"/>

<path d="M511.73,257c3.9-28-15.61-50.63-43.58-50.63H672.43c28,0,47.48,22.67,43.58,50.63Z" fill="#bcbec0"/>

<path d="M511.73,257c3.9-28-15.61-50.63-43.58-50.63H672.43c28,0,47.48,22.67,43.58,50.63Z" fill="#bcbec0" opacity="0.7"/>

<path d="M468.15,206.41H672.43c-28,0-53.8,22.67-57.69,50.63L568.56,588.38c-3.9,28-29.73,50.64-57.69,50.64h-103c-28,0-47.48-22.67-43.58-50.64L410.46,257C414.35,229.08,440.18,206.41,468.15,206.41Z" fill="#d1d3d4"/>

<path d="M467.29,588.38c-3.9,28,15.61,50.64,43.58,50.64H306.59c-28,0-47.48-22.67-43.58-50.64Z" fill="#bcbec0"/>

<path d="M467.29,588.38c-3.9,28,15.61,50.64,43.58,50.64H306.59c-28,0-47.48-22.67-43.58-50.64Z" fill="#bcbec0" opacity="0.7"/>

<ellipse cx="448.99" cy="310.34" rx="27.09" ry="23.57" transform="translate(-91.02 389.65) rotate(-43.01)" fill="#bcbec0" opacity="0.7"/>

<path d="M426.43,310.34a20.86,20.86,0,0,0,1.23,10.74c2.83,7,9.61,11.82,18.19,11.82s16.69-4.79,21.48-11.82a25.24,25.24,0,0,0,4.22-10.74c1.74-12.47-6.95-22.56-19.41-22.56S428.17,297.87,426.43,310.34Z" fill="#fff"/>

<path d="M432.57,319a14.62,14.62,0,0,0,14,9.06A20.4,20.4,0,0,0,463,319a24.34,24.34,0,0,0-14.58-4.61A30.54,30.54,0,0,0,432.57,319Z" fill="#bcbec0" opacity="0.7"/>

<path d="M442.06,304.79a6.55,6.55,0,0,0,6.63,7.71,9.17,9.17,0,0,0,8.79-7.71,6.56,6.56,0,0,0-6.64-7.71A9.15,9.15,0,0,0,442.06,304.79Z" fill="#bcbec0" opacity="0.7"/>

<path d="M490.54,377.63h26.69a5,5,0,0,0,4.78-4.19h0a3.57,3.57,0,0,0-3.61-4.19H491.71a5,5,0,0,0-4.77,4.19h0A3.57,3.57,0,0,0,490.54,377.63Z" fill="#e4e4e4" opacity="0.4"/>

<path d="M533.34,377.63h38.13a5,5,0,0,0,4.77-4.19h0a3.57,3.57,0,0,0-3.6-4.19H534.51a5,5,0,0,0-4.78,4.19h0A3.58,3.58,0,0,0,533.34,377.63Z" fill="#e4e4e4" opacity="0.4"/>

<path d="M488.37,393.23h65.36a5,5,0,0,0,4.78-4.19h0a3.57,3.57,0,0,0-3.61-4.19H489.54a5,5,0,0,0-4.78,4.19h0A3.57,3.57,0,0,0,488.37,393.23Z" fill="#e4e4e4" opacity="0.4"/>

<ellipse cx="439.5" cy="378.48" rx="27.09" ry="23.57" transform="translate(-140.05 401.48) rotate(-43.01)" fill="#bcbec0" opacity="0.7"/>

<path d="M416.94,378.48a20.78,20.78,0,0,0,1.22,10.75c2.83,7,9.62,11.81,18.19,11.81s16.7-4.78,21.48-11.81a25.37,25.37,0,0,0,4.23-10.75c1.73-12.46-7-22.56-19.42-22.56S418.67,366,416.94,378.48Z" fill="#fff"/>

<path d="M423.08,387.1A14.59,14.59,0,0,0,437,396.17a20.38,20.38,0,0,0,16.48-9.07,24.31,24.31,0,0,0-14.57-4.61A30.51,30.51,0,0,0,423.08,387.1Z" fill="#bcbec0" opacity="0.7"/>

<path d="M432.56,372.94a6.55,6.55,0,0,0,6.63,7.71,9.17,9.17,0,0,0,8.79-7.71,6.56,6.56,0,0,0-6.64-7.71A9.15,9.15,0,0,0,432.56,372.94Z" fill="#bcbec0" opacity="0.7"/>

<path d="M481.05,445.77h46.47a5,5,0,0,0,4.77-4.19h0a3.57,3.57,0,0,0-3.6-4.19H482.21a5,5,0,0,0-4.77,4.19h0A3.57,3.57,0,0,0,481.05,445.77Z" fill="#e4e4e4" opacity="0.4"/>

<path d="M478.87,461.37h72.45a5,5,0,0,0,4.78-4.19h0a3.57,3.57,0,0,0-3.61-4.19H480a5,5,0,0,0-4.77,4.19h0A3.56,3.56,0,0,0,478.87,461.37Z" fill="#e4e4e4" opacity="0.4"/>

<ellipse cx="430" cy="446.63" rx="27.09" ry="23.57" transform="translate(-189.09 413.32) rotate(-43.01)" fill="#bcbec0" opacity="0.7"/>

<path d="M407.44,446.63a20.75,20.75,0,0,0,1.23,10.74c2.82,7,9.61,11.82,18.18,11.82s16.7-4.79,21.48-11.82a25.12,25.12,0,0,0,4.23-10.74c1.74-12.47-7-22.56-19.42-22.56S409.18,434.16,407.44,446.63Z" fill="#fff"/>

<path d="M413.58,455.25a14.61,14.61,0,0,0,13.95,9.06A20.4,20.4,0,0,0,444,455.25a24.31,24.31,0,0,0-14.57-4.61A30.51,30.51,0,0,0,413.58,455.25Z" fill="#bcbec0" opacity="0.7"/>

<path d="M423.06,441.08a6.56,6.56,0,0,0,6.64,7.71,9.16,9.16,0,0,0,8.78-7.71,6.55,6.55,0,0,0-6.63-7.71A9.16,9.16,0,0,0,423.06,441.08Z" fill="#bcbec0" opacity="0.7"/>

<path d="M500,309.48h79.12a5,5,0,0,0,4.78-4.19h0a3.57,3.57,0,0,0-3.61-4.19H501.21a5,5,0,0,0-4.78,4.19h0A3.57,3.57,0,0,0,500,309.48Z" fill="#e4e4e4" opacity="0.4"/>

<path d="M497.87,325.08H556a5,5,0,0,0,4.77-4.19h0a3.57,3.57,0,0,0-3.61-4.19H499a5,5,0,0,0-4.77,4.19h0A3.57,3.57,0,0,0,497.87,325.08Z" fill="#e4e4e4" opacity="0.4"/>

<path d="M399.53,527.77h111a7,7,0,0,0,6.7-5.88h0a5,5,0,0,0-5.06-5.88H401.17a7,7,0,0,0-6.69,5.88h0A5,5,0,0,0,399.53,527.77Z" fill="#e4e4e4" opacity="0.2"/>

<path d="M396.49,549.64H478a7,7,0,0,0,6.7-5.88h0a5,5,0,0,0-5.06-5.88H398.12a7,7,0,0,0-6.69,5.88h0A5,5,0,0,0,396.49,549.64Z" fill="#e4e4e4" opacity="0.2"/>

<path d="M438.11,260.08H570.38a3.63,3.63,0,0,0,3.47-3h0a2.6,2.6,0,0,0-2.62-3H439a3.62,3.62,0,0,0-3.46,3h0A2.59,2.59,0,0,0,438.11,260.08Z" fill="#e4e4e4" opacity="0.2"/>

<path d="M308.48,292.15,295.32,303.8a4.83,4.83,0,0,1-6.82-.41h0a4.84,4.84,0,0,1,.41-6.83l13.17-11.65a4.83,4.83,0,0,1,6.82.42h0A4.83,4.83,0,0,1,308.48,292.15Z" fill="#700000" data-secondary="true"/>

<path d="M308.48,292.15,295.32,303.8a4.83,4.83,0,0,1-6.82-.41h0a4.84,4.84,0,0,1,.41-6.83l13.17-11.65a4.83,4.83,0,0,1,6.82.42h0A4.83,4.83,0,0,1,308.48,292.15Z" fill="#fff" opacity="0.2"/>

<path d="M338.94,188.5a16.43,16.43,0,0,0-.36-3.5l14.76-7.71S350.22,182.29,338.94,188.5Z" fill="#f4a48e"/>

<path d="M369.56,152.79c3.79-12.92-7.91-25.92-22.72-23.82-15,2.14-21.3,21.17-20.87,33.63,0,0-4.56,31.52,18.17,20.36S369.56,152.79,369.56,152.79Z" fill="#f9b499"/>

<path d="M339,130.33c.66,4.72,26.55,19.93,31.46,12s-2.15-13.88-13.17-15.4S339,130.33,339,130.33Z" fill="#700000" data-secondary="true"/>

<path d="M355.89,132.89c-3.18,4.19,3.55,34.31,13.2,31.48s9.2-12.47,2.5-21.38A25.81,25.81,0,0,0,355.89,132.89Z" fill="#700000" data-secondary="true"/>

</svg>